<svg xmlns="http://www.w3.org/2000/svg" viewBox="0 0 800 500">
<defs>
<filter id="ng" x="-50%" y="-50%" width="200%" height="200%">
<feGaussianBlur stdDeviation="4" result="b"/>
<feColorMatrix in="b" type="matrix" values="0 0 0 0 .26 0 0 0 0 .67 0 0 0 0 .83 0 0 0 .4 0"/>
<feMerge><feMergeNode/><feMergeNode in="SourceGraphic"/></feMerge>
</filter>
<path id="d1" d="M80,200C140,180,180,260,260,230C340,200,380,250,430,250L530,250L530,180L650,180L650,260L720,260" fill="none"/>
<path id="d2" d="M120,350C180,320,220,380,300,340C360,310,400,300,450,300L550,300L550,350L680,350" fill="none"/>
</defs>

<!-- Neural connections -->
<g fill="none" stroke="#42acd5">
<path d="M75,150C110,130,130,200,160,210" opacity=".3"/>
<path d="M75,150C100,180,90,250,120,290" stroke-width=".8" opacity=".25"/>
<path d="M160,210C190,230,170,280,120,290" stroke-width="1.2" opacity=".3"/>
<path d="M160,210C200,190,220,220,250,180" stroke-width=".7" opacity=".35"/>
<path d="M120,290C160,310,170,350,140,380" opacity=".25"/>
<path d="M120,290C170,280,210,300,230,320" stroke-width="1.5" opacity=".3"/>
<path d="M140,380C180,390,200,360,230,320" stroke-width=".8" opacity=".2"/>
<path d="M250,180C280,200,260,250,230,320" opacity=".3"/>
<path d="M75,150C60,200,80,320,140,380" stroke-width=".5" opacity=".15"/>
<path d="M250,180C270,140,260,100,210,90" stroke-width=".8" opacity=".25"/>
<path d="M210,90C160,85,110,110,75,150" opacity=".2"/>
<path d="M230,320C250,360,230,400,150,430" stroke-width=".9" opacity=".2"/>
</g>

<!-- Neural nodes -->
<g fill="rgba(66,172,213,.3)" stroke="#42acd5">
<circle cx="75" cy="150" r="10" stroke-width="1.2"/>
<circle cx="160" cy="210" r="14" stroke-width="1.5"/>
<circle cx="120" cy="290" r="11"/>
<circle cx="250" cy="180" r="9" stroke-width="1.2"/>
<circle cx="140" cy="380" r="8"/>
<circle cx="230" cy="320" r="12" stroke-width="1.3"/>
<circle cx="210" cy="90" r="7" stroke-width=".8"/>
<circle cx="150" cy="430" r="6" stroke-width=".8"/>
</g>

<!-- Transition connections -->
<g fill="none">
<path d="M250,180C290,170,310,155,340,155L380,155" stroke="#42acd5" opacity=".3"/>
<path d="M230,320C270,310,300,300,340,300L380,300" stroke="#42acd5" stroke-width="1.2" opacity=".3"/>
<path d="M250,180C300,200,330,230,360,230L400,230" stroke="#42acd5" stroke-width=".8" opacity=".25"/>
<path d="M230,320C280,350,320,370,360,370L400,370" stroke="#42acd5" stroke-width=".9" opacity=".25"/>
<path d="M380,155C400,155,410,160,420,160L460,160" stroke="rgba(200,210,220,.25)"/>
<path d="M400,230C420,230,430,240,450,240L480,240" stroke="rgba(200,210,220,.25)"/>
<polyline points="380,300 420,300 420,280 460,280" stroke="rgba(200,210,220,.2)"/>
<polyline points="400,370 440,370 440,350 480,350" stroke="rgba(200,210,220,.2)"/>
</g>

<!-- Transition nodes: circles to rounded rects to sharp rects -->
<circle cx="340" cy="155" r="8" fill="rgba(66,172,213,.2)" stroke="rgba(120,180,210,.5)"/>
<circle cx="340" cy="300" r="9" fill="rgba(66,172,213,.2)" stroke="rgba(120,180,210,.5)"/>
<g stroke="rgba(160,200,220,.4)">
<rect x="372" y="148" width="16" height="14" rx="5" fill="rgba(66,172,213,.15)"/>
<rect x="392" y="223" width="16" height="14" rx="5" fill="rgba(66,172,213,.15)"/>
</g>
<rect x="392" y="363" width="16" height="14" rx="4" fill="rgba(100,120,140,.15)" stroke="rgba(180,200,210,.35)"/>
<g fill="rgba(255,255,255,.08)" stroke="rgba(224,224,224,.25)">
<rect x="452" y="154" width="16" height="12" rx="2"/>
<rect x="472" y="234" width="16" height="12" rx="2"/>
<rect x="452" y="274" width="16" height="12" rx="2"/>
<rect x="472" y="344" width="16" height="12" rx="2"/>
</g>

<!-- Circuit traces -->
<g fill="none" stroke="rgba(224,224,224,.18)">
<line x1="520" y1="160" x2="740" y2="160"/>
<line x1="520" y1="280" x2="750" y2="280"/>
<polyline points="460,160 520,160 520,200 560,200"/>
<polyline points="460,280 500,280 500,320 540,320 540,350"/>
</g>
<g fill="none" stroke="rgba(224,224,224,.15)">
<line x1="540" y1="240" x2="720" y2="240"/>
<line x1="540" y1="350" x2="730" y2="350"/>
<line x1="560" y1="160" x2="560" y2="240"/>
<line x1="680" y1="240" x2="680" y2="350"/>
<polyline points="488,240 540,240 540,280 520,280"/>
</g>
<g fill="none" stroke="rgba(224,224,224,.12)">
<line x1="620" y1="160" x2="620" y2="280"/>
<line x1="640" y1="280" x2="640" y2="350"/>
<line x1="580" y1="280" x2="580" y2="350"/>
<polyline points="488,350 520,350 520,400 580,400"/>
</g>
<g fill="none" stroke="rgba(224,224,224,.1)">
<line x1="720" y1="160" x2="720" y2="240"/>
<polyline points="700,160 700,120 740,120"/>
<polyline points="660,350 660,400 720,400 720,430"/>
</g>

<!-- Circuit pads -->
<g fill="rgba(255,255,255,.08)" stroke="rgba(224,224,224,.2)">
<rect x="554" y="154" width="12" height="12"/>
<rect x="614" y="154" width="12" height="12"/>
<rect x="674" y="234" width="12" height="12"/>
<rect x="574" y="274" width="12" height="12"/>
<rect x="674" y="344" width="12" height="12"/>
</g>
<g fill="rgba(255,255,255,.06)" stroke="rgba(224,224,224,.18)">
<rect x="554" y="234" width="12" height="12"/>
<rect x="614" y="274" width="12" height="12"/>
<rect x="634" y="344" width="12" height="12"/>
<rect x="574" y="344" width="12" height="12"/>
<rect x="714" y="154" width="12" height="12"/>
</g>
<rect x="690" y="270" width="20" height="20" rx="1" fill="rgba(255,255,255,.05)" stroke="rgba(224,224,224,.2)"/>
<rect x="730" y="340" width="18" height="18" rx="1" fill="rgba(255,255,255,.05)" stroke="rgba(224,224,224,.15)"/>

<!-- Data packets -->
<circle r="4" fill="#42acd5" filter="url(#ng)"><animateMotion dur="4s" repeatCount="indefinite"><mpath href="#d1"/></animateMotion></circle>
<circle r="3" fill="#42acd5" opacity=".8" filter="url(#ng)"><animateMotion dur="5s" repeatCount="indefinite" begin="1.5s"><mpath href="#d2"/></animateMotion></circle>
</svg>