<svg xmlns="http://www.w3.org/2000/svg" fill="currentColor" viewBox="0 0 4598 1200"><path d="M599 935H390L190 398q10 79 15.5 139.5T211 681v254H65V242h204l205 538q-22-137-22-258V242h147Zm660-230q0 71-30.5 127t-91.5 88-149 32q-132 0-201-67t-69-180V242h164v456q0 67 25.5 99.5T988 830q56 0 81.5-32.5T1095 698V242h164Zm284-463v563h270l-17 130h-417V242Zm513 0v563h270l-17 130h-417V242Zm583-130v118h-115v711h115v117h-265V112Z"/><path fill="#42acd5" d="m2973 119 138 31-235 897-139-32Z"/><path d="M3768 242l-193 693h-204l-200-693h173l132 565 124-565Z"/><path d="M3764 1106V982h500v124Z"><animate attributeName="opacity" values="1;1;0;0" dur="1s" repeatCount="indefinite"/></path><path d="M4564 112v946h-265V940h115V230h-115V112Z"/></svg>