<?xml version="1.0" standalone="no"?>
<!DOCTYPE svg PUBLIC "-//W3C//DTD SVG 20010904//EN"
 "http://www.w3.org/TR/2001/REC-SVG-20010904/DTD/svg10.dtd">
<svg version="1.0" xmlns="http://www.w3.org/2000/svg"
 width="700.000000pt" height="700.000000pt" viewBox="0 0 700.000000 700.000000"
 preserveAspectRatio="xMidYMid meet">
<metadata>
Created by potrace 1.11, written by Peter Selinger 2001-2013
</metadata>
<g transform="translate(0.000000,700.000000) scale(0.100000,-0.100000)"
fill="#000000" stroke="none">
<path d="M2547 6975 c-290 -101 -370 -462 -151 -678 24 -24 66 -55 94 -68 39
-19 49 -29 50 -49 1 -14 2 -386 2 -827 l1 -802 -103 -183 c-113 -202 -108
-193 -202 -361 -38 -65 -68 -120 -68 -122 0 -2 -20 -38 -45 -79 -25 -42 -45
-78 -45 -80 0 -2 -22 -41 -48 -87 -27 -46 -60 -104 -74 -129 -130 -233 -292
-521 -483 -860 -126 -223 -242 -430 -258 -460 -17 -30 -50 -88 -74 -128 -24
-41 -43 -75 -43 -77 0 -2 -15 -30 -34 -62 -18 -32 -45 -78 -58 -103 -14 -25
-67 -119 -118 -210 -142 -251 -174 -322 -201 -438 -19 -82 -21 -95 -23 -183
-16 -495 350 -924 838 -980 61 -7 732 -9 2061 -7 l1970 4 76 21 c350 99 605
352 694 689 34 130 40 355 11 434 -3 8 -7 26 -10 40 -11 63 -63 184 -131 305
-54 95 -282 500 -310 550 -15 28 -41 75 -58 105 -16 30 -33 60 -37 65 -4 6
-22 37 -40 70 -18 33 -80 143 -138 245 -57 102 -120 214 -139 250 -20 36 -39
70 -43 75 -4 6 -22 37 -40 69 -31 56 -354 630 -397 706 -11 19 -35 62 -53 95
-30 54 -74 134 -140 250 -13 22 -34 60 -48 85 -14 25 -81 144 -150 265 l-124
220 -1 828 c0 455 2 828 4 830 2 1 25 13 51 26 68 34 143 113 178 189 113 237
-32 523 -290 572 -34 6 -374 10 -919 10 l-866 -1 -68 -24z m1838 -265 c40 -20
75 -89 69 -136 -5 -42 -36 -87 -73 -104 -17 -9 -83 -14 -198 -15 -194 -3 -220
-11 -254 -75 -25 -45 -24 -83 2 -129 30 -55 53 -65 159 -71 l94 -5 1 -850 c0
-700 3 -854 14 -875 8 -14 188 -336 402 -715 213 -380 391 -697 394 -705 4
-13 -24 -15 -197 -15 -215 0 -278 -5 -453 -35 -148 -26 -144 -25 -281 -65
-155 -45 -282 -95 -464 -183 -269 -129 -451 -196 -615 -228 -11 -2 -42 -8 -70
-14 -145 -30 -267 -39 -475 -35 -118 2 -231 6 -250 10 -19 3 -73 13 -120 20
-71 13 -206 44 -297 71 -13 3 -23 10 -23 15 0 5 82 154 182 332 99 177 192
342 206 367 14 25 115 205 225 400 110 195 211 375 225 400 13 25 32 59 42 75
10 17 29 50 42 75 14 25 52 92 84 150 l59 104 0 853 0 853 83 0 c106 0 144 16
172 74 11 23 20 53 20 65 0 39 -30 90 -67 112 -32 20 -50 22 -206 24 -95 1
-181 5 -192 10 -26 11 -75 64 -76 84 -5 70 -1 94 24 124 44 55 29 54 940 53
725 -1 846 -3 872 -16z m640 -3975 c39 -4 88 -10 110 -14 l39 -6 318 -565
c556 -987 528 -934 553 -1045 35 -148 14 -306 -58 -455 -33 -68 -59 -102 -127
-171 -104 -105 -210 -163 -355 -195 -44 -10 -3920 -12 -3985 -2 -125 19 -281
94 -366 177 -179 173 -255 429 -195 662 23 88 42 128 180 373 56 98 101 181
101 183 0 3 8 17 18 31 11 15 36 59 57 97 21 39 66 120 100 180 35 61 72 127
84 148 60 106 103 182 106 186 2 1 28 -5 57 -15 29 -10 58 -19 63 -20 6 -1 53
-13 105 -27 52 -14 140 -33 195 -42 55 -9 110 -18 123 -20 161 -27 572 -21
715 10 12 2 38 7 57 9 209 29 476 117 735 241 272 131 404 180 605 228 142 34
184 41 335 53 44 3 81 7 83 9 5 5 277 -3 347 -10z"/>
<path d="M2851 3814 c-306 -81 -411 -470 -185 -687 143 -137 354 -156 514 -47
88 60 142 135 170 239 12 46 14 134 5 186 -10 55 -65 153 -114 202 -47 48
-131 96 -187 108 -59 13 -150 13 -203 -1z m186 -289 c52 -34 66 -124 28 -181
-70 -107 -247 -57 -247 70 0 114 121 175 219 111z"/>
<path d="M2394 1090 c-54 -8 -92 -34 -110 -75 -26 -63 -11 -124 39 -165 l31
-25 1406 -3 c1323 -2 1407 -1 1439 15 46 24 72 62 76 109 2 37 -15 85 -39 109
-39 40 -8 39 -1431 39 -753 1 -1389 -1 -1411 -4z"/>
</g>
</svg>
